{
    "asset" : {
        "generator" : "Khronos glTF Blender I/O v3.3.27",
        "version" : "2.0"
    },
    "scene" : 0,
    "scenes" : [
        {
            "name" : "Scene",
            "nodes" : [
                0
            ]
        }
    ],
    "nodes" : [
        {
            "mesh" : 0,
            "name" : "path0.001"
        }
    ],
    "materials" : [
        {
            "doubleSided" : true,
            "name" : "Material.001",
            "pbrMetallicRoughness" : {
                "baseColorFactor" : [
                    0.800000011920929,
                    0.800000011920929,
                    0.800000011920929,
                    1
                ],
                "metallicFactor" : 0,
                "roughnessFactor" : 0.5
            }
        },
        {
            "doubleSided" : true,
            "name" : "Material",
            "pbrMetallicRoughness" : {
                "baseColorFactor" : [
                    0.800000011920929,
                    0.800000011920929,
                    0.800000011920929,
                    1
                ],
                "metallicFactor" : 0,
                "roughnessFactor" : 0.5
            }
        }
    ],
    "meshes" : [
        {
            "name" : "path0.001",
            "primitives" : [
                {
                    "attributes" : {
                        "POSITION" : 0,
                        "NORMAL" : 1,
                        "TEXCOORD_0" : 2,
                        "COLOR_0" : 3
                    },
                    "indices" : 4,
                    "material" : 0
                },
                {
                    "attributes" : {
                        "POSITION" : 5,
                        "NORMAL" : 6,
                        "TEXCOORD_0" : 7,
                        "COLOR_0" : 8
                    },
                    "indices" : 9,
                    "material" : 1
                }
            ]
        }
    ],
    "accessors" : [
        {
            "bufferView" : 0,
            "componentType" : 5126,
            "count" : 6268,
            "max" : [
                5.829036712646484,
                32.83433532714844,
                140.60845947265625
            ],
            "min" : [
                -8.27338695526123,
                1.443129062652588,
                -139.94467163085938
            ],
            "type" : "VEC3"
        },
        {
            "bufferView" : 1,
            "componentType" : 5126,
            "count" : 6268,
            "type" : "VEC3"
        },
        {
            "bufferView" : 2,
            "componentType" : 5126,
            "count" : 6268,
            "type" : "VEC2"
        },
        {
            "bufferView" : 3,
            "componentType" : 5123,
            "count" : 6268,
            "normalized" : true,
            "type" : "VEC4"
        },
        {
            "bufferView" : 4,
            "componentType" : 5123,
            "count" : 35181,
            "type" : "SCALAR"
        },
        {
            "bufferView" : 5,
            "componentType" : 5126,
            "count" : 5020,
            "max" : [
                5.00993013381958,
                -6.076436519622803,
                145.91697692871094
            ],
            "min" : [
                -6.78984260559082,
                -22.778608322143555,
                -144.06546020507812
            ],
            "type" : "VEC3"
        },
        {
            "bufferView" : 6,
            "componentType" : 5126,
            "count" : 5020,
            "type" : "VEC3"
        },
        {
            "bufferView" : 7,
            "componentType" : 5126,
            "count" : 5020,
            "type" : "VEC2"
        },
        {
            "bufferView" : 8,
            "componentType" : 5123,
            "count" : 5020,
            "normalized" : true,
            "type" : "VEC4"
        },
        {
            "bufferView" : 9,
            "componentType" : 5123,
            "count" : 24903,
            "type" : "SCALAR"
        }
    ],
    "bufferViews" : [
        {
            "buffer" : 0,
            "byteLength" : 75216,
            "byteOffset" : 0,
            "target" : 34962
        },
        {
            "buffer" : 0,
            "byteLength" : 75216,
            "byteOffset" : 75216,
            "target" : 34962
        },
        {
            "buffer" : 0,
            "byteLength" : 50144,
            "byteOffset" : 150432,
            "target" : 34962
        },
        {
            "buffer" : 0,
            "byteLength" : 50144,
            "byteOffset" : 200576,
            "target" : 34962
        },
        {
            "buffer" : 0,
            "byteLength" : 70362,
            "byteOffset" : 250720,
            "target" : 34963
        },
        {
            "buffer" : 0,
            "byteLength" : 60240,
            "byteOffset" : 321084,
            "target" : 34962
        },
        {
            "buffer" : 0,
            "byteLength" : 60240,
            "byteOffset" : 381324,
            "target" : 34962
        },
        {
            "buffer" : 0,
            "byteLength" : 40160,
            "byteOffset" : 441564,
            "target" : 34962
        },
        {
            "buffer" : 0,
            "byteLength" : 40160,
            "byteOffset" : 481724,
            "target" : 34962
        },
        {
            "buffer" : 0,
            "byteLength" : 49806,
            "byteOffset" : 521884,
            "target" : 34963
        }
    ],
    "buffers" : [
        {
            "byteLength" : 571692,
            "uri" : "scene2.bin"
        }
    ]
}
