{
    "asset" : {
        "generator" : "Khronos glTF Blender I/O v3.3.27",
        "version" : "2.0"
    },
    "scene" : 0,
    "scenes" : [
        {
            "name" : "Scene",
            "nodes" : [
                0
            ]
        }
    ],
    "nodes" : [
        {
            "mesh" : 0,
            "name" : "Text"
        }
    ],
    "meshes" : [
        {
            "name" : "Text",
            "primitives" : [
                {
                    "attributes" : {
                        "POSITION" : 0,
                        "NORMAL" : 1,
                        "TEXCOORD_0" : 2,
                        "COLOR_0" : 3
                    },
                    "indices" : 4
                }
            ]
        }
    ],
    "accessors" : [
        {
            "bufferView" : 0,
            "componentType" : 5126,
            "count" : 30199,
            "max" : [
                0.41663098335266113,
                28.069700241088867,
                147.76321411132812
            ],
            "min" : [
                -4.419058799743652,
                -22.684484481811523,
                -146.89035034179688
            ],
            "type" : "VEC3"
        },
        {
            "bufferView" : 1,
            "componentType" : 5126,
            "count" : 30199,
            "type" : "VEC3"
        },
        {
            "bufferView" : 2,
            "componentType" : 5126,
            "count" : 30199,
            "type" : "VEC2"
        },
        {
            "bufferView" : 3,
            "componentType" : 5123,
            "count" : 30199,
            "normalized" : true,
            "type" : "VEC4"
        },
        {
            "bufferView" : 4,
            "componentType" : 5123,
            "count" : 145407,
            "type" : "SCALAR"
        }
    ],
    "bufferViews" : [
        {
            "buffer" : 0,
            "byteLength" : 362388,
            "byteOffset" : 0,
            "target" : 34962
        },
        {
            "buffer" : 0,
            "byteLength" : 362388,
            "byteOffset" : 362388,
            "target" : 34962
        },
        {
            "buffer" : 0,
            "byteLength" : 241592,
            "byteOffset" : 724776,
            "target" : 34962
        },
        {
            "buffer" : 0,
            "byteLength" : 241592,
            "byteOffset" : 966368,
            "target" : 34962
        },
        {
            "buffer" : 0,
            "byteLength" : 290814,
            "byteOffset" : 1207960,
            "target" : 34963
        }
    ],
    "buffers" : [
        {
            "byteLength" : 1498776,
            "uri" : "scene.bin"
        }
    ]
}
