{
    "asset" : {
        "generator" : "Khronos glTF Blender I/O v3.3.27",
        "version" : "2.0"
    },
    "scene" : 0,
    "scenes" : [
        {
            "name" : "Scene",
            "nodes" : [
                0
            ]
        }
    ],
    "nodes" : [
        {
            "mesh" : 0,
            "name" : "path0.001"
        }
    ],
    "materials" : [
        {
            "doubleSided" : true,
            "name" : "Material.003",
            "pbrMetallicRoughness" : {}
        }
    ],
    "meshes" : [
        {
            "name" : "path0.001",
            "primitives" : [
                {
                    "attributes" : {
                        "POSITION" : 0,
                        "NORMAL" : 1,
                        "TEXCOORD_0" : 2,
                        "COLOR_0" : 3
                    },
                    "indices" : 4,
                    "material" : 0
                }
            ]
        }
    ],
    "accessors" : [
        {
            "bufferView" : 0,
            "componentType" : 5126,
            "count" : 6268,
            "max" : [
                5.829036712646484,
                32.83433532714844,
                140.60845947265625
            ],
            "min" : [
                -8.27338695526123,
                1.443129062652588,
                -139.94467163085938
            ],
            "type" : "VEC3"
        },
        {
            "bufferView" : 1,
            "componentType" : 5126,
            "count" : 6268,
            "type" : "VEC3"
        },
        {
            "bufferView" : 2,
            "componentType" : 5126,
            "count" : 6268,
            "type" : "VEC2"
        },
        {
            "bufferView" : 3,
            "componentType" : 5123,
            "count" : 6268,
            "normalized" : true,
            "type" : "VEC4"
        },
        {
            "bufferView" : 4,
            "componentType" : 5123,
            "count" : 35181,
            "type" : "SCALAR"
        }
    ],
    "bufferViews" : [
        {
            "buffer" : 0,
            "byteLength" : 75216,
            "byteOffset" : 0,
            "target" : 34962
        },
        {
            "buffer" : 0,
            "byteLength" : 75216,
            "byteOffset" : 75216,
            "target" : 34962
        },
        {
            "buffer" : 0,
            "byteLength" : 50144,
            "byteOffset" : 150432,
            "target" : 34962
        },
        {
            "buffer" : 0,
            "byteLength" : 50144,
            "byteOffset" : 200576,
            "target" : 34962
        },
        {
            "buffer" : 0,
            "byteLength" : 70362,
            "byteOffset" : 250720,
            "target" : 34963
        }
    ],
    "buffers" : [
        {
            "byteLength" : 321084,
            "uri" : "Headline.bin"
        }
    ]
}
